<svg width="24" height="24" viewBox="0 0 24 24" fill="none" xmlns="http://www.w3.org/2000/svg">
<path fill-rule="evenodd" clip-rule="evenodd" d="M21.8909 20.3436C22.0891 20.5488 22.1998 20.8229 22.1998 21.1082C22.1998 21.3934 22.0891 21.6676 21.8909 21.8727L21.8891 21.8746C21.7869 21.9777 21.6653 22.0596 21.5313 22.1154C21.3973 22.1713 21.2536 22.2001 21.1084 22.2001C20.9633 22.2001 20.8196 22.1713 20.6856 22.1154C20.5517 22.0596 20.4301 21.9778 20.328 21.8748L15.1437 16.6881C13.5114 17.9412 11.4697 18.5439 9.41496 18.3748C7.30056 18.2007 5.3332 17.2226 3.91737 15.6415C2.50155 14.0604 1.74488 11.9965 1.80291 9.87432C1.86094 7.7521 2.72925 5.73275 4.22936 4.23151C5.72947 2.73026 7.74735 1.86123 9.86809 1.80316C11.9888 1.74508 14.0512 2.50238 15.6311 3.91929C17.211 5.33619 18.1884 7.305 18.3623 9.42087C18.5313 11.4769 17.9291 13.52 16.677 15.1536L21.8909 20.3436ZM6.72695 15.1931C7.72947 15.8634 8.9081 16.2212 10.1138 16.2212C11.7306 16.2212 13.2812 15.5785 14.4244 14.4343C15.5677 13.2902 16.21 11.7383 16.21 10.1202C16.21 8.91349 15.8525 7.7339 15.1826 6.73059C14.5127 5.72727 13.5606 4.94531 12.4467 4.48355C11.3328 4.0218 10.107 3.90099 8.9245 4.13638C7.74197 4.37178 6.65573 4.95283 5.80314 5.80606C4.95055 6.6593 4.36992 7.7464 4.13468 8.92992C3.89944 10.1134 4.02017 11.3402 4.4816 12.455C4.94303 13.5699 5.72443 14.5227 6.72695 15.1931Z" fill="#7F8895"/>
</svg>
